<svg version="1.2" xmlns="http://www.w3.org/2000/svg" viewBox="0 0 1000 974" width="1000" height="974">
	<title>curve-arrow</title>
	<style>
		.s0 { fill: #3b82f6 }
	</style>
	<g>
		<path class="s0" d="m745 2.4c0 1.2 1.1 4.4 2.5 7 1.4 2.6 2.5 6 2.5 7.5 0 1.5-1.8 7.4-3.9 13.1l-3.9 10.4 8.1 8.9c4.5 4.9 8.1 9.3 8 9.8-0.2 0.5 0.3 0.9 1.1 0.9 0.7 0 6.1 4.5 12 10.1 10.5 10 10.6 10.1 10.6 14.8 0 4 0.6 5.4 4.1 9.6 2.6 3.1 6.7 6.4 11 8.8 3.8 2.1 6.9 4.4 6.9 5.1 0 0.7-1 2.4-2.3 3.8-1.9 2-3.6 2.6-9.1 3.1-11.4 1.1-47.1 9.6-68.1 16.2-11 3.5-27.7 8.6-37.2 11.5-9.5 2.8-20.3 6.3-24 7.9-3.7 1.6-10.8 4.1-15.7 5.6-4.9 1.5-25.8 10.5-46.5 20-44.5 20.4-48.6 22.4-64.8 32.1-6.9 4.1-12.9 7.4-13.3 7.4-0.5 0-1.3 0.6-1.7 1.3-0.4 0.8-9.1 6.2-19.3 12.2-40.7 23.7-87.3 57.7-141.7 103.6-1.3 1-2.3 2.6-2.3 3.5 0 0.9-0.6 1.4-1.4 1.1-0.8-0.3-4.9 3.1-10.2 8.5-4.9 4.9-14.3 13.6-20.9 19.3-12.5 10.7-23.8 22-27 26.8-1 1.6-2.6 3.2-3.6 3.5-1 0.4-14.2 14.9-29.4 32.2-15.2 17.3-31.4 35.8-36 41-11 12.5-12.7 14.8-12.1 15.8 0.3 0.5-1.3 1.7-3.5 2.6-3.9 1.7-7.9 6.5-7.9 9.4 0 0.8-5.3 8.4-11.8 17-6.5 8.7-14.3 19.3-17.2 23.7-3 4.4-9.1 12.9-13.5 19-4.5 6-12.5 17.4-17.9 25.2-5.3 7.8-10.1 14.5-10.7 14.8-0.5 0.4-0.9 2.6-0.9 5 0 4.1-0.3 4.7-4.5 7.7-3.5 2.6-4.4 3.8-4 5.4 0.3 1.5-0.2 2.7-1.9 3.7-3.6 2.4-47.9 87.6-61.1 117.7-37 84.3-55.2 148.2-61 214.4-1 11.2-1.4 30.8-1.5 61.1v44.5h500 500v-40-40h-495-495.1l3.6-3.6c1.9-1.9 4.7-5.3 6-7.4 4.7-7.5 21.1-48.8 35.5-89.5 11.7-33.2 19.8-54.1 24.5-63.5 2.3-4.7 8.4-18 13.5-29.5 12.4-28.1 20.8-45.2 33.3-68 27.6-50.4 57.3-95.7 86.7-132.5 6.4-8 15.2-19.2 19.4-25 10.6-14.2 13.3-17.3 41.7-48.5 27.9-30.5 36.2-38.8 74.9-74.6 48.8-45.1 47-43.7 94.1-77.1 64-45.4 81-56.3 121.3-77.5 90.2-47.6 130.9-63.2 213.9-81.8 16-3.6 29.6-6.5 30.3-6.5 2.8 0 1.3 2.6-2.1 3.9-1.9 0.7-3.5 1.7-3.5 2.2 0 0.6-1.5 2.2-3.2 3.7-1.8 1.5-8.9 8.5-15.8 15.7-6.8 7.1-19.7 20.5-28.5 29.6-13.2 13.7-33 37.3-34.3 41-0.2 0.5 1 0.9 2.6 0.9 2.6 0 3.1 0.5 4.1 4.2 1 4 0.7 5.5-4.5 21.2-6.1 18.3-6.2 17.4 0.8 19.7 6 2 16.4-1.4 28.1-9.3 38.7-25.9 62-43.4 91.4-68.6 12.2-10.5 25.6-21.4 29.9-24.2 4.2-2.9 15.8-11.3 25.7-18.6 20.8-15.6 29.1-20.8 51.7-32.8 9.1-4.9 19.2-10.8 22.6-13.1 12.7-9.1 22.6-23.5 22.9-33.4 0.1-2.5 0.9-6.1 1.8-7.8 1.7-3.2 1.7-3.4-1.2-9.1"/>
	</g>
</svg>