<svg width="100" height="88" viewBox="0 0 100 88" fill="none" xmlns="http://www.w3.org/2000/svg">
<path d="M30.455 31.472L49.4277 20.518C49.661 20.3833 49.9258 20.3123 50.1952 20.3123C50.4647 20.3123 50.7295 20.3833 50.9628 20.518L69.9355 31.472C70.1688 31.6067 70.3625 31.8005 70.4973 32.0338C70.632 32.2672 70.703 32.5318 70.7031 32.8013V54.7091C70.7031 55.2571 70.4101 55.7638 69.9355 56.0384L50.9628 66.9923C50.7295 67.1271 50.4647 67.198 50.1952 67.198C49.9258 67.198 49.661 67.1271 49.4277 66.9923L30.455 56.0384C30.2217 55.9036 30.0279 55.7098 29.8932 55.4765C29.7584 55.2432 29.6875 54.9785 29.6874 54.7091V32.8009C29.6878 32.2524 29.9804 31.7462 30.455 31.4716" fill="#8080F2"/>
<path d="M99.3816 41.9599L76.6886 2.48047C75.8644 1.05313 74.3417 0 72.6933 0H27.3069C25.6584 0 24.135 1.05313 23.3108 2.48047L0.618165 41.8727C-0.206055 43.3005 -0.206055 45.1024 0.618165 46.5302L23.3108 85.6861C24.135 87.1135 25.6584 87.8432 27.3069 87.8432H72.6929C74.3414 87.8432 75.8644 87.1353 76.6882 85.7076L99.3813 46.488C100.206 45.061 100.206 43.3872 99.3813 41.9599H99.3816ZM80.5906 60.9443C80.5906 61.5243 80.2414 62.0615 79.7382 62.3521L50.8323 79.0291C50.5834 79.1717 50.3016 79.2467 50.0147 79.2467C49.7279 79.2467 49.446 79.1717 49.1972 79.0291L20.269 62.3521C19.7663 62.0615 19.4143 61.5247 19.4143 60.9439V27.5891C19.4143 27.0083 19.7612 26.4719 20.2643 26.1813L49.1687 9.50393C49.4174 9.36109 49.6992 9.28593 49.986 9.28593C50.2729 9.28593 50.5547 9.36109 50.8034 9.50393L79.7332 26.1813C80.2367 26.4719 80.5906 27.0083 80.5906 27.5891V60.9439V60.9443Z" fill="#4B32C3"/>
</svg>
