<svg xmlns="http://www.w3.org/2000/svg" viewBox="0 0 256 256">
  <rect width="256" height="256" rx="50" fill="#161614"/>
  <path d="M128 25.6c-57.6 0-104 46.4-104 104 0 45.4 29.5 84.2 70.4 97.8 5.2 0.9 7-2.2 7-4.9 0-2.4-0.1-8.7-0.1-17.1-28.6 6.2-34.6-13.8-34.6-13.8-4.7-11.9-11.4-15-11.4-15-9.3-6.3 0.7-6.2 0.7-6.2 10.3 0.7 15.7 10.6 15.7 10.6 9.1 15.6 24 11.1 29.8 8.5 0.9-6.6 3.6-11.1 6.5-13.7-22.8-2.6-46.8-11.4-46.8-50.7 0-11.2 4-20.3 10.5-27.5-1.1-2.6-4.6-13 1-27.1 0 0 8.6-2.7 28 10.4 8.1-2.3 16.8-3.4 25.5-3.4 8.7 0 17.4 1.1 25.5 3.4 19.4-13.1 28-10.4 28-10.4 5.6 14.1 2.1 24.5 1 27.1 6.5 7.2 10.5 16.3 10.5 27.5 0 39.4-24 48.1-46.9 50.6 3.7 3.2 6.9 9.4 6.9 18.9 0 13.7-0.1 24.7-0.1 28.1 0 2.7 1.9 5.9 7.1 4.9 40.8-13.6 70.3-52.4 70.3-97.8 0-57.6-46.4-104-104-104z" fill="#FFFFFF"/>
</svg>
