<svg width="100" height="93" viewBox="0 0 100 93" fill="none" xmlns="http://www.w3.org/2000/svg">
<path d="M50.0001 92.1174L68.413 35.4487H31.5868L49.9997 92.1174H50.0001Z" fill="#E24329"/>
<path d="M50.0001 92.1171L31.5868 35.4482H5.78198L50.0001 92.1171Z" fill="#FC6D26"/>
<path d="M5.78194 35.4482L0.186614 52.6697C-0.0621712 53.4353 -0.0622055 54.26 0.186516 55.0256C0.435238 55.7912 0.919947 56.4585 1.57118 56.9317L50 92.1173L5.78155 35.4486L5.78194 35.4482Z" fill="#FCA326"/>
<path d="M5.78198 35.4485H31.5868L20.4974 1.31709C19.9267 -0.439224 17.4421 -0.438833 16.8718 1.31709L5.78198 35.4485Z" fill="#E24329"/>
<path d="M50.0001 92.1171L68.4131 35.4482H94.2183L49.9998 92.1171H50.0001Z" fill="#FC6D26"/>
<path d="M94.2182 35.4482L99.8135 52.6697C100.062 53.4353 100.062 54.2601 99.8134 55.0257C99.5646 55.7913 99.0798 56.4585 98.4285 56.9317L50.0001 92.1173L94.2182 35.4486V35.4482Z" fill="#FCA326"/>
<path d="M94.2182 35.4485H68.413L79.5028 1.31709C80.0735 -0.439224 82.5581 -0.438833 83.1284 1.31709L94.2182 35.4485Z" fill="#E24329"/>
</svg>
