<svg width="100" height="100" viewBox="0 0 100 100" fill="none" xmlns="http://www.w3.org/2000/svg">
<path d="M89.5728 19.4394C83.5282 11.6121 75.2981 5.75313 65.9235 2.6035C56.5488 -0.546142 46.4507 -0.844958 36.9062 1.74484C27.3617 4.33463 18.7996 9.69671 12.3027 17.1529C5.80588 24.6091 1.66609 33.8245 0.406949 43.6336C-0.852194 53.4428 0.825867 63.405 5.2289 72.2603C9.63194 81.1157 16.5622 88.4665 25.1431 93.3829C33.7241 98.2994 43.5703 100.561 53.4365 99.8809C63.3027 99.2011 72.7457 95.6107 80.5713 89.5638C102.415 72.6827 106.446 41.2908 89.5712 19.4394H89.5728Z" fill="#FF6C37"/>
<path d="M66.8634 31.8581L45.7809 53.108L39.8232 46.983C60.5729 26.2331 62.6557 28.1081 66.865 31.8581H66.8634Z" fill="white"/>
<path d="M45.7809 53.6891C45.5942 53.6845 45.4159 53.6104 45.2809 53.4813L39.281 47.4814C39.1459 47.3415 39.0704 47.1547 39.0704 46.9603C39.0704 46.7658 39.1459 46.579 39.281 46.4392C59.7386 25.9815 62.5308 26.9394 67.3635 31.3143C67.4444 31.3791 67.5092 31.4618 67.5526 31.5559C67.596 31.65 67.6168 31.7529 67.6135 31.8565C67.6448 32.0596 67.5667 32.2674 67.4057 32.3987L46.3231 53.4829C46.1753 53.6184 45.9815 53.6927 45.7809 53.6907V53.6891ZM40.8638 46.9814L45.7809 51.8985L65.7807 31.8987C65.0902 31.0333 64.1049 30.4528 63.0132 30.2683C61.9215 30.0839 60.8002 30.3083 59.8636 30.8987C56.2386 32.5237 50.4059 37.4814 40.8638 46.9814V46.9814Z" fill="#FF6C37"/>
<path d="M51.823 58.9827L46.073 53.1078L67.1557 32.2737C72.8229 37.8158 64.4057 47.0657 51.823 58.9811V58.9827Z" fill="white"/>
<path d="M51.8231 59.7327C51.6387 59.7181 51.4636 59.6453 51.3231 59.5249L45.4482 53.775C45.3601 53.5613 45.3601 53.3215 45.4482 53.1078C45.3857 52.9325 45.3857 52.741 45.4482 52.5656L66.5308 31.4831C66.6774 31.3453 66.871 31.2686 67.0722 31.2686C67.2734 31.2686 67.467 31.3453 67.6136 31.4831C68.2964 32.1115 68.8358 32.8795 69.1952 33.735C69.5546 34.5905 69.7255 35.5134 69.6964 36.4408C69.6964 42.0658 63.2793 49.1485 52.3637 59.4827C52.2179 59.6271 52.026 59.7156 51.8216 59.7327H51.8231ZM47.156 53.1078L51.8637 57.814C60.1965 49.9391 68.1558 41.8142 68.1964 36.3143C68.2417 35.1483 67.8563 34.0065 67.1136 33.1065L47.156 53.1078Z" fill="#FF6C37"/>
<path d="M39.9888 47.108L44.1559 51.2751C44.1825 51.2986 44.2038 51.3274 44.2184 51.3597C44.233 51.3921 44.2406 51.4271 44.2406 51.4626C44.2406 51.4981 44.233 51.5331 44.2184 51.5655C44.2038 51.5978 44.1825 51.6266 44.1559 51.6501L35.3638 53.5251C35.1864 53.5634 35.0012 53.5426 34.8366 53.466C34.672 53.3894 34.537 53.261 34.4521 53.1006C34.3671 52.9401 34.337 52.7562 34.3662 52.577C34.3954 52.3979 34.4824 52.2331 34.6139 52.1079L39.7388 47.0251C39.7388 47.0251 39.906 47.0251 39.9888 47.108Z" fill="white"/>
<path d="M35.156 54.3579C34.8782 54.3544 34.6059 54.2797 34.3652 54.141C34.1245 54.0023 33.9234 53.8043 33.781 53.5657C33.6208 53.2635 33.5627 52.9176 33.6153 52.5796C33.668 52.2417 33.8286 51.9298 34.0732 51.6907L39.1559 46.5658C39.3392 46.4019 39.5765 46.3113 39.8223 46.3113C40.0682 46.3113 40.3054 46.4019 40.4887 46.5658L44.6559 50.7329C44.9027 50.9673 44.9996 51.322 44.9059 51.6501C44.8121 51.9782 44.5371 52.2391 44.1981 52.3173L35.406 54.1922L35.156 54.3579ZM39.8231 48.0251L35.1154 52.7329L42.9074 51.0657L39.8231 48.0251Z" fill="#FF6C37"/>
<path d="M78.0729 20.1488C75.0573 17.2395 70.3197 17.1176 67.1572 19.8629C63.9947 22.6082 63.4541 27.3206 65.9166 30.7112C68.3791 34.1018 73.0213 35.0518 76.6151 32.8987L70.9479 27.2316L78.0729 20.1488Z" fill="white"/>
<path d="M72.4479 34.8144C70.7154 34.7921 69.0276 34.2606 67.5951 33.2859C66.1625 32.3112 65.0484 30.9365 64.3917 29.3331C63.7354 27.7309 63.5632 25.9715 63.8965 24.2725C64.2297 22.5734 65.0538 21.0094 66.2667 19.7738C67.9349 18.1363 70.1791 17.2189 72.5167 17.2189C74.8543 17.2189 77.0985 18.1363 78.7667 19.7738C78.926 19.9082 79.0167 20.1066 79.0167 20.316C79.0163 20.419 78.9938 20.5208 78.9506 20.6143C78.9075 20.7078 78.8448 20.791 78.7667 20.8582L72.0167 27.2332L77.1417 32.2753C77.2247 32.3546 77.2871 32.453 77.3233 32.562C77.3595 32.6709 77.3685 32.7871 77.3495 32.9003C77.3371 33.0095 77.3009 33.1147 77.2434 33.2084C77.1859 33.3021 77.1085 33.382 77.0167 33.4425C75.6398 34.3031 74.0571 34.778 72.4339 34.8175L72.4479 34.8144ZM72.4479 18.6473C69.4792 18.6629 66.8229 20.4488 65.7089 23.1785C64.5948 25.9082 65.2011 29.0503 67.2823 31.1472C68.3175 32.1884 69.643 32.8927 71.0853 33.1679C72.5275 33.4431 74.0193 33.2763 75.3651 32.6894L70.4479 27.7722C70.3698 27.7097 70.3066 27.6304 70.2633 27.5402C70.2199 27.45 70.1974 27.3512 70.1974 27.2511C70.1974 27.151 70.2199 27.0522 70.2633 26.962C70.3066 26.8718 70.3698 26.7925 70.4479 26.73L76.9479 20.1879C75.6558 19.1976 74.0758 18.6562 72.4479 18.6457V18.6473Z" fill="#FF6C37"/>
<path d="M78.1978 20.2738L71.0729 27.3565L76.74 33.0236C77.3104 32.6962 77.8414 32.3046 78.3228 31.8565C79.8081 30.2865 80.6253 28.2009 80.602 26.0399C80.5786 23.8788 79.7166 21.8113 78.1978 20.2738V20.2738Z" fill="white"/>
<path d="M76.6135 33.6487C76.5199 33.6538 76.4263 33.6378 76.3398 33.6018C76.2532 33.5658 76.1759 33.5108 76.1135 33.4409L70.4463 27.7738C70.3682 27.7113 70.3051 27.632 70.2617 27.5418C70.2183 27.4516 70.1958 27.3528 70.1958 27.2527C70.1958 27.1526 70.2183 27.0538 70.2617 26.9636C70.3051 26.8734 70.3682 26.7941 70.4463 26.7316L77.5291 19.7738C77.5975 19.6707 77.6904 19.5861 77.7994 19.5276C77.9085 19.469 78.0303 19.4384 78.1541 19.4384C78.2778 19.4384 78.3997 19.469 78.5087 19.5276C78.6178 19.5861 78.7107 19.6707 78.7791 19.7738C79.6106 20.5885 80.2711 21.5609 80.7221 22.6341C81.173 23.7073 81.4053 24.8597 81.4053 26.0238C81.4053 27.1879 81.173 28.3403 80.7221 29.4135C80.2711 30.4866 79.6106 31.4591 78.7791 32.2738C78.2886 32.794 77.7274 33.2427 77.1119 33.6066C76.9569 33.6847 76.7778 33.6998 76.6119 33.6487H76.6135ZM72.0307 27.2332L76.7385 31.9409C77.0623 31.714 77.3689 31.4633 77.6556 31.191C79.0396 29.8108 79.8191 27.9377 79.8228 25.9832C79.826 24.234 79.1885 22.5443 78.0306 21.2332L72.0307 27.2332Z" fill="#FF6C37"/>
<path d="M67.7386 32.7331C67.1742 32.2031 66.4292 31.9081 65.655 31.9081C64.8808 31.9081 64.1358 32.2031 63.5714 32.7331L44.6981 51.5642L47.8231 54.7314L67.7808 37.2315C68.0851 36.9398 68.3265 36.5889 68.4902 36.2004C68.6538 35.8118 68.7362 35.3939 68.7322 34.9724C68.7283 34.5508 68.6381 34.1345 68.4672 33.7492C68.2963 33.3638 68.0483 33.0175 67.7386 32.7315V32.7331Z" fill="white"/>
<path d="M47.6559 55.4829C47.4692 55.4783 47.2909 55.4042 47.1559 55.2751L43.9888 52.1079C43.8537 51.9681 43.7782 51.7812 43.7782 51.5868C43.7782 51.3924 43.8537 51.2056 43.9888 51.0657L62.8636 32.2737C63.4073 31.7307 64.1015 31.3636 64.8564 31.2199C65.6112 31.0762 66.3918 31.1627 67.0969 31.468C67.802 31.7733 68.3991 32.2834 68.8108 32.9322C69.2225 33.581 69.4298 34.3385 69.4057 35.1065C69.3841 35.6278 69.2587 36.1395 69.0368 36.6117C68.8149 37.0839 68.501 37.5071 68.1136 37.8565L48.1559 55.3563C48.0108 55.459 47.8324 55.5036 47.6559 55.4813V55.4829ZM45.4482 51.5642L47.5309 53.6891L67.1136 36.6471C67.598 36.2252 67.887 35.6221 67.9058 34.9799C67.9245 34.3377 67.6714 33.7096 67.198 33.2721C66.7608 32.8368 66.1689 32.5923 65.5519 32.5923C64.9349 32.5923 64.343 32.8368 63.9058 33.2721L45.4482 51.5642Z" fill="#FF6C37"/>
<path d="M30.0733 73.0234C30.0199 73.0958 29.9912 73.1834 29.9912 73.2734C29.9912 73.3633 30.0199 73.4509 30.0733 73.5234L30.9061 77.1483C30.9394 77.3616 30.9078 77.5801 30.8153 77.7752C30.7227 77.9702 30.5736 78.1329 30.3873 78.2421C30.2017 78.3507 29.9864 78.3975 29.7724 78.3759C29.5584 78.3543 29.3569 78.2653 29.1967 78.1218L23.489 72.6218L41.2809 54.6891H47.448L51.6152 58.8563C45.1148 64.5397 37.8668 69.3063 30.0733 73.0234V73.0234Z" fill="white"/>
<path d="M29.6983 79.1483C29.2264 79.1389 28.7608 78.9452 28.4483 78.6061L22.9905 73.1484C22.9124 73.0859 22.8492 73.0066 22.8059 72.9164C22.7625 72.8262 22.74 72.7274 22.74 72.6273C22.74 72.5272 22.7625 72.4284 22.8059 72.3382C22.8492 72.248 22.9124 72.1687 22.9905 72.1062L40.906 54.1485C41.0063 54.0419 41.1374 53.9693 41.281 53.9407H47.4887C47.6505 53.8835 47.827 53.8835 47.9887 53.9407L52.1559 58.1079C52.2351 58.1809 52.2954 58.2721 52.3316 58.3737C52.3678 58.4752 52.3788 58.584 52.3637 58.6907C52.3666 58.7942 52.3456 58.897 52.3022 58.9911C52.2589 59.0851 52.1943 59.1679 52.1137 59.2329L51.7809 59.525C45.2543 64.9661 38.0738 69.571 30.4061 73.2327L31.1983 76.6077C31.2595 76.8681 31.2618 77.1388 31.2051 77.4002C31.1484 77.6615 31.0341 77.907 30.8704 78.1185C30.7068 78.3301 30.498 78.5024 30.2592 78.623C30.0205 78.7436 29.7579 78.8094 29.4905 78.8155L29.6983 79.1483ZM24.6155 72.6062L29.5311 77.5639C29.5769 77.6048 29.6361 77.6274 29.6975 77.6274C29.7589 77.6274 29.8181 77.6048 29.8639 77.5639C29.8945 77.5214 29.911 77.4703 29.911 77.4179C29.911 77.3654 29.8945 77.3143 29.8639 77.2718L29.0311 73.6468C28.9655 73.3866 28.9918 73.1118 29.1058 72.8689C29.2197 72.6259 29.4141 72.4299 29.6561 72.314C37.1176 68.7011 44.113 64.1958 50.4887 58.8969L47.0716 55.4798H41.4888L24.6155 72.6062Z" fill="#FF6C37"/>
<path d="M19.1983 76.8983L23.3655 72.7311L29.7826 79.1482L19.5749 78.4404C19.3996 78.4267 19.2332 78.3579 19.0993 78.244C18.9654 78.1301 18.871 77.9768 18.8294 77.806C18.7878 77.6351 18.8013 77.4556 18.8678 77.2928C18.9343 77.1301 19.0506 76.9926 19.1999 76.8998L19.1983 76.8983Z" fill="white"/>
<path d="M29.906 79.7733L19.739 79.0655C19.1359 79.0093 18.6171 78.5968 18.4046 78.0452C18.1921 77.4936 18.3218 76.839 18.739 76.3983L22.9061 72.2312C23.046 72.0961 23.2328 72.0206 23.4272 72.0206C23.6216 72.0206 23.8085 72.0961 23.9483 72.2312L30.3232 78.6061C30.4115 78.727 30.459 78.8729 30.459 79.0225C30.459 79.1722 30.4115 79.318 30.3232 79.4389C30.2268 79.5948 30.0794 79.7124 29.906 79.7718V79.7733ZM19.739 77.4405L28.0717 77.9827L23.4889 73.6905L19.739 77.4405Z" fill="#FF6C37"/>
<path d="M48.0308 55.1922L39.6138 56.4844L44.4887 51.6517L48.0308 55.1922Z" fill="white"/>
<path d="M39.6138 57.2736C39.4739 57.2772 39.336 57.2396 39.2174 57.1654C39.0987 57.0912 39.0046 56.9837 38.9466 56.8564C38.8579 56.7357 38.8101 56.5898 38.8101 56.44C38.8101 56.2902 38.8579 56.1443 38.9466 56.0236L43.7793 51.1485C43.9259 51.0108 44.1196 50.9341 44.3207 50.9341C44.5219 50.9341 44.7155 51.0108 44.8621 51.1485L48.4058 54.6892C48.4766 54.8014 48.5141 54.9315 48.5141 55.0642C48.5141 55.1969 48.4766 55.3269 48.4058 55.4392C48.3711 55.576 48.2976 55.6999 48.1942 55.7961C48.0909 55.8922 47.962 55.9566 47.823 55.9814L39.4904 57.2736H39.6138ZM44.4887 52.7314L41.7809 55.4392L46.448 54.7314L44.4887 52.7314Z" fill="#FF6C37"/>
<path d="M48.0308 55.1892L42.1559 55.9392C41.9987 55.9749 41.8342 55.959 41.6867 55.8938C41.5393 55.8286 41.4167 55.7176 41.3373 55.5774C41.2579 55.4371 41.2257 55.2749 41.2457 55.1149C41.2657 54.9549 41.3366 54.8057 41.4481 54.6892L44.4903 51.647L48.0308 55.1892Z" fill="white"/>
<path d="M41.9888 56.7329C41.7165 56.7303 41.4497 56.6557 41.2156 56.5165C40.9815 56.3774 40.7884 56.1787 40.656 55.9407C40.4969 55.6555 40.4352 55.3262 40.4803 55.0027C40.5254 54.6792 40.6749 54.3793 40.906 54.1486L43.9482 51.1064C44.0948 50.9686 44.2884 50.8919 44.4896 50.8919C44.6907 50.8919 44.8844 50.9686 45.031 51.1064L48.5731 54.6486C48.6785 54.7484 48.7526 54.8766 48.7865 55.0177C48.8204 55.1588 48.8127 55.3067 48.7642 55.4435C48.7158 55.5802 48.6287 55.7 48.5135 55.7883C48.3983 55.8766 48.26 55.9295 48.1153 55.9407L42.2826 56.6907L41.9888 56.7329ZM41.9888 55.1907L46.406 54.6486L44.4482 52.6908L41.9482 55.1907H41.9888ZM78.2385 25.0659C78.16 24.9345 78.036 24.8364 77.8899 24.7903C77.7439 24.7442 77.5861 24.7533 77.4463 24.8159C77.3773 24.8509 77.3161 24.8993 77.2662 24.9584C77.2162 25.0174 77.1787 25.0859 77.1557 25.1597C77.1093 25.3087 77.1239 25.4699 77.1963 25.6081C77.4885 26.2222 77.4072 26.9487 76.9885 27.4831C76.9365 27.5346 76.8957 27.5963 76.8688 27.6644C76.8419 27.7324 76.8295 27.8053 76.8323 27.8784C76.8338 28.025 76.8894 28.1658 76.9885 28.2737C77.0954 28.3159 77.2144 28.3159 77.3213 28.2737C77.4183 28.2981 77.5202 28.2954 77.6158 28.266C77.7114 28.2365 77.7971 28.1813 77.8635 28.1065C78.2066 27.6865 78.4239 27.1779 78.4902 26.6396C78.5566 26.1013 78.4693 25.5552 78.2385 25.0644V25.0659Z" fill="#FF6C37"/>
</svg>
