<svg width="100" height="100" viewBox="0 0 100 100" fill="none" xmlns="http://www.w3.org/2000/svg">
<path d="M73.8095 19.0476H78.5715C79.9048 19.0476 80.9524 20.0952 80.9524 21.4286C80.9524 22.7619 79.9048 23.8095 78.5715 23.8095H73.8095C72.4762 23.8095 71.4286 22.7619 71.4286 21.4286C71.4286 20.0952 72.4762 19.0476 73.8095 19.0476Z" fill="#56B3B4"/>
<path d="M2.38095 95.2382H26.1904C27.5238 95.2382 28.5714 96.2858 28.5714 97.6191C28.5714 98.9525 27.5238 100 26.1904 100H2.38095C1.04762 100 0 98.9525 0 97.6191C0 96.2858 1.04762 95.2382 2.38095 95.2382Z" fill="#EA5E5E"/>
<path d="M59.5239 57.1429H73.8095C75.1428 57.1429 76.1904 58.1905 76.1904 59.5238C76.1904 60.8571 75.1428 61.9046 73.8095 61.9046H59.5239C58.1906 61.9046 57.1429 60.8571 57.1429 59.5238C57.1429 58.1905 58.1906 57.1429 59.5239 57.1429Z" fill="#BF85BF"/>
<path d="M30.9524 57.1429H50.0001C51.3334 57.1429 52.3811 58.1905 52.3811 59.5238C52.3811 60.8571 51.3334 61.9046 50.0001 61.9046H30.9524C29.6191 61.9046 28.5715 60.8571 28.5715 59.5238C28.5715 58.1905 29.6191 57.1429 30.9524 57.1429Z" fill="#EA5E5E"/>
<path d="M2.38095 57.1429H21.4286C22.7619 57.1429 23.8095 58.1905 23.8095 59.5238C23.8095 60.8571 22.7619 61.9046 21.4286 61.9046H2.38095C1.04762 61.9046 0 60.8571 0 59.5238C0 58.1905 1.04762 57.1429 2.38095 57.1429Z" fill="#56B3B4"/>
<path d="M2.38095 76.1904H26.1904C27.5238 76.1904 28.5714 77.2381 28.5714 78.5714C28.5714 79.9047 27.5238 80.9524 26.1904 80.9524H2.38095C1.04762 80.9524 0 79.9047 0 78.5714C0 77.2381 1.04762 76.1904 2.38095 76.1904Z" fill="#BF85BF"/>
<path d="M2.38095 38.0952H26.1904C27.5238 38.0952 28.5714 39.1429 28.5714 40.4762C28.5714 41.8096 27.5238 42.8572 26.1904 42.8572H2.38095C1.04762 42.8572 0 41.8096 0 40.4762C0 39.1429 1.04762 38.0952 2.38095 38.0952Z" fill="#BF85BF"/>
<path d="M26.1905 9.5238H73.8094C75.1428 9.5238 76.1904 10.5714 76.1904 11.9048C76.1904 13.2381 75.1428 14.2857 73.8094 14.2857H26.1905C24.8571 14.2857 23.8095 13.2381 23.8095 11.9048C23.8095 10.5714 24.8571 9.5238 26.1905 9.5238Z" fill="#F7BA3E"/>
<path d="M2.38095 9.5238H16.6667C18 9.5238 19.0476 10.5714 19.0476 11.9048C19.0476 13.2381 18 14.2857 16.6667 14.2857H2.38095C1.04762 14.2857 0 13.2381 0 11.9048C0 10.5714 1.04762 9.5238 2.38095 9.5238Z" fill="#EA5E5E"/>
<path d="M21.4286 85.7142H26.1905C27.5239 85.7142 28.5715 86.7619 28.5715 88.0952C28.5715 89.4285 27.5239 90.4762 26.1905 90.4762H21.4286C20.0952 90.4762 19.0476 89.4285 19.0476 88.0952C19.0476 86.7619 20.0952 85.7142 21.4286 85.7142Z" fill="#F7BA3E"/>
<path d="M21.4286 28.5715H26.1905C27.5239 28.5715 28.5715 29.6191 28.5715 30.9524C28.5715 32.2857 27.5239 33.3333 26.1905 33.3333H21.4286C20.0952 33.3333 19.0476 32.2857 19.0476 30.9524C19.0476 29.6191 20.0952 28.5715 21.4286 28.5715Z" fill="#56B3B4"/>
<path d="M2.38096 85.7142H11.9048C13.2381 85.7142 14.2857 86.7619 14.2857 88.0952C14.2857 89.4285 13.2381 90.4762 11.9048 90.4762H2.38096C1.04762 90.4762 0 89.4285 0 88.0952C0 86.7619 1.04762 85.7142 2.38096 85.7142Z" fill="#56B3B4"/>
<path d="M2.38096 28.5715H11.9048C13.2381 28.5715 14.2857 29.6191 14.2857 30.9524C14.2857 32.2857 13.2381 33.3333 11.9048 33.3333H2.38096C1.04762 33.3333 0 32.2857 0 30.9524C0 29.6191 1.04762 28.5715 2.38096 28.5715Z" fill="#F7BA3E"/>
<path opacity="0.5" d="M64.2858 85.7142H69.0476C70.3809 85.7142 71.4285 86.7619 71.4285 88.0952C71.4285 89.4285 70.3809 90.4762 69.0476 90.4762H64.2858C62.9525 90.4762 61.9049 89.4285 61.9049 88.0952C61.9049 86.7619 62.9525 85.7142 64.2858 85.7142Z" fill="#D0D4D8"/>
<path opacity="0.5" d="M35.7143 85.7142H54.762C56.0953 85.7142 57.143 86.7619 57.143 88.0952C57.143 89.4285 56.0953 90.4762 54.762 90.4762H35.7143C34.3809 90.4762 33.3333 89.4285 33.3333 88.0952C33.3333 86.7619 34.3809 85.7142 35.7143 85.7142Z" fill="#D0D4D8"/>
<path opacity="0.5" d="M78.5714 85.7142H97.6191C98.9525 85.7142 100 86.7619 100 88.0952C100 89.4285 98.9525 90.4762 97.6191 90.4762H78.5714C77.2381 90.4762 76.1905 89.4285 76.1905 88.0952C76.1905 86.7619 77.2381 85.7142 78.5714 85.7142Z" fill="#D0D4D8"/>
<path d="M40.4762 47.619H78.5714C79.9047 47.619 80.9523 48.6666 80.9523 49.9999C80.9523 51.3332 79.9047 52.3808 78.5714 52.3808H40.4762C39.1428 52.3808 38.0952 51.3332 38.0952 49.9999C38.0952 48.6666 39.1428 47.619 40.4762 47.619Z" fill="#56B3B4"/>
<path d="M16.6667 47.619H30.9524C32.2857 47.619 33.3333 48.6666 33.3333 49.9999C33.3333 51.3332 32.2857 52.3808 30.9524 52.3808H16.6667C15.3333 52.3808 14.2857 51.3332 14.2857 49.9999C14.2857 48.6666 15.3333 47.619 16.6667 47.619Z" fill="#F7BA3E"/>
<path d="M2.38095 47.619H7.14286C8.4762 47.619 9.52382 48.6666 9.52382 49.9999C9.52382 51.3332 8.4762 52.3808 7.14286 52.3808H2.38095C1.04762 52.3808 0 51.3332 0 49.9999C0 48.6666 1.04762 47.619 2.38095 47.619Z" fill="#EA5E5E"/>
<path d="M45.2381 19.0476H64.2857C65.619 19.0476 66.6666 20.0952 66.6666 21.4286C66.6666 22.7619 65.619 23.8095 64.2857 23.8095H45.2381C43.9048 23.8095 42.8572 22.7619 42.8572 21.4286C42.8572 20.0952 43.9048 19.0476 45.2381 19.0476Z" fill="#BF85BF"/>
<path d="M2.38095 19.0476H35.7143C37.0476 19.0476 38.0952 20.0952 38.0952 21.4286C38.0952 22.7619 37.0476 23.8095 35.7143 23.8095H2.38095C1.04762 23.8095 0 22.7619 0 21.4286C0 20.0952 1.04762 19.0476 2.38095 19.0476Z" fill="#56B3B4"/>
<path d="M16.6667 66.6666H59.5239C60.8573 66.6666 61.9049 67.7142 61.9049 69.0476C61.9049 70.3809 60.8573 71.4285 59.5239 71.4285H16.6667C15.3333 71.4285 14.2857 70.3809 14.2857 69.0476C14.2857 67.7142 15.3333 66.6666 16.6667 66.6666Z" fill="#F7BA3E"/>
<path d="M2.38095 66.6666H7.14286C8.4762 66.6666 9.52382 67.7142 9.52382 69.0476C9.52382 70.3809 8.4762 71.4285 7.14286 71.4285H2.38095C1.04762 71.4285 0 70.3809 0 69.0476C0 67.7142 1.04762 66.6666 2.38095 66.6666Z" fill="#BF85BF"/>
<path d="M59.5239 28.5715H83.3333C84.6666 28.5715 85.7143 29.6191 85.7143 30.9524C85.7143 32.2857 84.6666 33.3333 83.3333 33.3333H59.5239C58.1906 33.3333 57.1429 32.2857 57.1429 30.9524C57.1429 29.6191 58.1906 28.5715 59.5239 28.5715Z" fill="#EA5E5E"/>
<path d="M59.5239 38.0952H83.3333C84.6666 38.0952 85.7143 39.1429 85.7143 40.4762C85.7143 41.8096 84.6666 42.8572 83.3333 42.8572H59.5239C58.1906 42.8572 57.1429 41.8096 57.1429 40.4762C57.1429 39.1429 58.1906 38.0952 59.5239 38.0952Z" fill="#F7BA3E"/>
<path d="M2.38095 0H59.5238C60.8571 0 61.9048 1.04762 61.9048 2.38095C61.9048 3.71429 60.8571 4.7619 59.5238 4.7619H2.38095C1.04762 4.7619 0 3.71429 0 2.38095C0 1.04762 1.04762 0 2.38095 0Z" fill="#56B3B4"/>
<path opacity="0.5" d="M69.0476 0H97.6191C98.9524 0 100 1.04762 100 2.38095C100 3.71429 98.9524 4.7619 97.6191 4.7619H69.0476C67.7143 4.7619 66.6667 3.71429 66.6667 2.38095C66.6667 1.04762 67.7143 0 69.0476 0Z" fill="#D0D4D8"/>
<path opacity="0.5" d="M69.0476 66.6666H78.5714C79.9047 66.6666 80.9523 67.7142 80.9523 69.0476C80.9523 70.3809 79.9047 71.4285 78.5714 71.4285H69.0476C67.7143 71.4285 66.6667 70.3809 66.6667 69.0476C66.6667 67.7142 67.7143 66.6666 69.0476 66.6666Z" fill="#D0D4D8"/>
<path opacity="0.5" d="M88.0953 66.6666H97.6191C98.9524 66.6666 100 67.7142 100 69.0476C100 70.3809 98.9524 71.4285 97.6191 71.4285H88.0953C86.7619 71.4285 85.7143 70.3809 85.7143 69.0476C85.7143 67.7142 86.7619 66.6666 88.0953 66.6666Z" fill="#D0D4D8"/>
<path opacity="0.5" d="M83.3334 57.1429H97.6191C98.9524 57.1429 100 58.1905 100 59.5238C100 60.8571 98.9524 61.9046 97.6191 61.9046H83.3334C82 61.9046 80.9524 60.8571 80.9524 59.5238C80.9524 58.1905 82 57.1429 83.3334 57.1429Z" fill="#D0D4D8"/>
<path opacity="0.5" d="M83.3334 9.5238H97.6191C98.9524 9.5238 100 10.5714 100 11.9048C100 13.2381 98.9524 14.2857 97.6191 14.2857H83.3334C82 14.2857 80.9524 13.2381 80.9524 11.9048C80.9524 10.5714 82 9.5238 83.3334 9.5238Z" fill="#D0D4D8"/>
<path opacity="0.5" d="M88.0953 47.619H97.6191C98.9524 47.619 100 48.6666 100 49.9999C100 51.3332 98.9524 52.3808 97.6191 52.3808H88.0953C86.7619 52.3808 85.7143 51.3332 85.7143 49.9999C85.7143 48.6666 86.7619 47.619 88.0953 47.619Z" fill="#D0D4D8"/>
<path opacity="0.5" d="M88.0953 19.0476H97.6191C98.9524 19.0476 100 20.0952 100 21.4286C100 22.7619 98.9524 23.8095 97.6191 23.8095H88.0953C86.7619 23.8095 85.7143 22.7619 85.7143 21.4286C85.7143 20.0952 86.7619 19.0476 88.0953 19.0476Z" fill="#D0D4D8"/>
<path opacity="0.5" d="M92.8572 28.5715H97.6191C98.9524 28.5715 100 29.6191 100 30.9524C100 32.2857 98.9524 33.3333 97.6191 33.3333H92.8572C91.5238 33.3333 90.4762 32.2857 90.4762 30.9524C90.4762 29.6191 91.5238 28.5715 92.8572 28.5715Z" fill="#D0D4D8"/>
<path opacity="0.5" d="M92.8572 38.0952H97.6191C98.9524 38.0952 100 39.1429 100 40.4762C100 41.8096 98.9524 42.8572 97.6191 42.8572H92.8572C91.5238 42.8572 90.4762 41.8096 90.4762 40.4762C90.4762 39.1429 91.5238 38.0952 92.8572 38.0952Z" fill="#D0D4D8"/>
<path opacity="0.5" d="M54.762 76.1904H97.6191C98.9524 76.1904 100 77.2381 100 78.5714C100 79.9047 98.9524 80.9524 97.6191 80.9524H54.762C53.4287 80.9524 52.3811 79.9047 52.3811 78.5714C52.3811 77.2381 53.4287 76.1904 54.762 76.1904Z" fill="#D0D4D8"/>
<path opacity="0.5" d="M35.7143 76.1904H45.2381C46.5714 76.1904 47.619 77.2381 47.619 78.5714C47.619 79.9047 46.5714 80.9524 45.2381 80.9524H35.7143C34.3809 80.9524 33.3333 79.9047 33.3333 78.5714C33.3333 77.2381 34.3809 76.1904 35.7143 76.1904Z" fill="#D0D4D8"/>
<path opacity="0.5" d="M73.8096 95.2382H97.6192C98.9525 95.2382 100 96.2858 100 97.6191C100 98.9525 98.9525 100 97.6192 100H73.8096C72.4762 100 71.4286 98.9525 71.4286 97.6191C71.4286 96.2858 72.4762 95.2382 73.8096 95.2382Z" fill="#D0D4D8"/>
<path opacity="0.5" d="M35.7143 95.2382H64.2856C65.619 95.2382 66.6666 96.2858 66.6666 97.6191C66.6666 98.9525 65.619 100 64.2856 100H35.7143C34.3809 100 33.3333 98.9525 33.3333 97.6191C33.3333 96.2858 34.3809 95.2382 35.7143 95.2382Z" fill="#D0D4D8"/>
<path opacity="0.5" d="M35.7143 28.5715H50.0001C51.3334 28.5715 52.3811 29.6191 52.3811 30.9524C52.3811 32.2857 51.3334 33.3333 50.0001 33.3333H35.7143C34.3809 33.3333 33.3333 32.2857 33.3333 30.9524C33.3333 29.6191 34.3809 28.5715 35.7143 28.5715Z" fill="#D0D4D8"/>
<path opacity="0.5" d="M35.7143 38.0952H50.0001C51.3334 38.0952 52.3811 39.1429 52.3811 40.4762C52.3811 41.8096 51.3334 42.8572 50.0001 42.8572H35.7143C34.3809 42.8572 33.3333 41.8096 33.3333 40.4762C33.3333 39.1429 34.3809 38.0952 35.7143 38.0952Z" fill="#D0D4D8"/>
</svg>
