<svg width="99" height="100" viewBox="0 0 99 100" fill="none" xmlns="http://www.w3.org/2000/svg">
<path d="M97.848 14.801L51.7313 98.6947C50.7791 100.427 48.3328 100.437 47.3664 98.7134L0.335428 14.8088C-0.71763 12.9307 0.86119 10.6554 2.9535 11.0362L49.1197 19.4307C49.4142 19.4843 49.7158 19.4837 50.0102 19.4292L95.2107 11.0479C97.2961 10.6613 98.8822 12.919 97.848 14.801V14.801Z" fill="url(#paint0_linear_25_464)"/>
<path d="M71.1109 0.0246207L36.9835 6.8278C36.7108 6.88215 36.4636 7.02714 36.2808 7.23999C36.0979 7.45285 35.9898 7.72148 35.9734 8.00367L33.8742 44.074C33.8626 44.2718 33.8966 44.4697 33.9733 44.6518C34.05 44.834 34.1675 44.9954 34.3162 45.1233C34.465 45.2513 34.6411 45.3421 34.8304 45.3888C35.0197 45.4354 35.2171 45.4364 35.407 45.3919L44.9086 43.1611C45.7976 42.9524 46.601 43.749 46.4181 44.6584L43.5952 58.7216C43.4054 59.6681 44.2786 60.4772 45.1871 60.1963L51.056 58.3826C51.9656 58.1017 52.84 58.9132 52.6474 59.8604L48.1614 81.9503C47.8807 83.3321 49.6873 84.0855 50.4405 82.901L50.944 82.1099L78.753 25.6495C79.219 24.7042 78.4156 23.6262 77.3955 23.8268L67.6146 25.747C66.6958 25.9273 65.9138 25.0565 66.1731 24.142L72.5566 1.62925C72.8163 0.712429 72.0313 -0.158743 71.1113 0.0246207H71.1109Z" fill="url(#paint1_linear_25_464)"/>
<defs>
<linearGradient id="paint0_linear_25_464" x1="-0.812871" y1="17.8048" x2="50.0375" y2="85.6876" gradientUnits="userSpaceOnUse">
<stop stop-color="#41D1FF"/>
<stop offset="1" stop-color="#BD34FE"/>
</linearGradient>
<linearGradient id="paint1_linear_25_464" x1="53.3984" y1="1.87182" x2="63.9803" y2="73.2241" gradientUnits="userSpaceOnUse">
<stop stop-color="#FFEA83"/>
<stop offset="0.083" stop-color="#FFDD35"/>
<stop offset="1" stop-color="#FFA800"/>
</linearGradient>
</defs>
</svg>
