<svg width="91" height="100" viewBox="0 0 91 100" fill="none" xmlns="http://www.w3.org/2000/svg">
<path d="M84.8775 49.2357C84.8775 44.0953 80.7101 39.9278 75.5696 39.9278C75.2387 39.9278 74.9127 39.9455 74.591 39.9796L87.3754 2.27326H33.0461L45.8128 39.9466C45.6244 39.9347 45.4357 39.9286 45.2469 39.9282C40.1065 39.9282 35.939 44.0949 35.939 49.2361C35.939 53.3911 38.6623 56.9091 42.4205 58.106C40.4357 61.5443 37.9377 64.6414 35.1018 67.3172C31.2454 70.9549 26.8321 73.7136 22.0587 75.4133C16.3755 72.4937 13.6919 66.0009 16.1133 60.3081C16.3868 59.665 16.666 59.0134 16.9328 58.3647C21.05 57.4038 24.1184 53.7128 24.1184 49.3027C24.1184 44.1619 19.9509 39.9948 14.8101 39.9948C9.66936 39.9948 5.50225 44.1619 5.50225 49.3027C5.50225 52.455 7.07045 55.2396 9.4681 56.9233C7.16434 62.1686 3.77779 67.6584 2.72264 74.0208C1.45808 81.6457 2.71839 89.7397 9.31327 94.3107C24.6722 104.956 41.3441 87.7116 58.9225 83.3765C65.2931 81.8058 72.2862 82.0588 77.8989 78.8083C82.1139 76.3671 84.8928 72.3212 85.6811 67.7792C86.4606 63.2921 85.3247 58.8246 82.7126 55.202C84.114 53.53 84.8806 51.4173 84.8775 49.2357" fill="#99425B"/>
<path d="M83.4415 67.3902C82.757 71.3337 80.3214 74.778 76.7598 76.8412C73.4395 78.7641 69.4609 79.3381 65.2481 79.9454C62.9914 80.2706 60.6579 80.6076 58.3782 81.1695C52.3506 82.6559 46.5122 85.556 40.8665 88.3604C29.5674 93.9727 19.8095 98.8191 10.6087 92.4421C3.86887 87.7711 4.17996 79.1287 4.96512 74.3929C5.69289 70.005 7.6604 65.9641 9.56272 62.0563C9.88682 61.3922 10.2083 60.7268 10.5272 60.0601C11.4861 60.4434 12.4923 60.6959 13.5187 60.8105C11.582 67.202 14.6277 74.1516 21.0199 77.4354L21.895 77.885L22.8212 77.5551C27.8748 75.7552 32.5316 72.8676 36.6619 68.9704C39.3316 66.4516 41.6273 63.6649 43.514 60.6872C44.0876 60.7738 44.6669 60.8172 45.2469 60.8173C51.1141 60.8173 55.9724 56.4312 56.7243 50.7664C59.1259 50.6785 61.6766 50.6778 64.0919 50.7657C64.8431 56.4312 69.7022 60.8176 75.5693 60.8176C78.0226 60.8176 80.298 60.0488 82.1727 58.7427C83.4741 61.4068 83.9599 64.4044 83.4415 67.3902V67.3902ZM14.8105 42.2681C18.6895 42.2681 21.8451 45.424 21.8451 49.3031C21.8451 50.6962 21.4362 51.9955 20.7343 53.0896C19.5651 54.9133 17.5774 56.1633 15.2938 56.3192C15.134 56.3299 14.9728 56.3377 14.8105 56.3377C13.946 56.3377 13.1179 56.18 12.3523 55.8937C10.8102 55.3138 9.51889 54.214 8.70103 52.7839C8.09373 51.7244 7.77464 50.5243 7.77556 49.3031C7.77556 45.424 10.9314 42.2681 14.8105 42.2681V42.2681ZM38.2127 49.2361C38.2127 45.7117 40.818 42.7854 44.2031 42.2795C44.544 42.2281 44.8926 42.2015 45.2473 42.2015C47.5025 42.2015 49.5104 43.2698 50.798 44.9251C51.1205 45.3379 51.396 45.7853 51.6193 46.2591C52.0566 47.1906 52.2828 48.2071 52.2819 49.2361C52.2819 49.7984 52.2139 50.3451 52.0888 50.8695C51.4032 53.7395 48.9559 55.9334 45.957 56.2353C45.7238 56.2586 45.4872 56.2707 45.2473 56.2707C43.8942 56.2718 42.5698 55.8803 41.4349 55.1436C39.4982 53.889 38.2127 51.7103 38.2127 49.2361V49.2361ZM67.5731 40.8707C66.0423 42.3319 64.9406 44.1842 64.3874 46.2269C61.7359 46.1291 59.0817 46.1291 56.4302 46.2269C55.835 44.0188 54.6012 42.0708 52.9413 40.5911L60.2207 25.8721L67.5731 40.8707ZM36.2168 4.54729H84.2043L72.8701 37.9752C72.3825 38.092 71.903 38.2406 71.4348 38.4199L60.2384 15.5796L49.0101 38.2835C48.5207 38.1155 48.0204 37.9806 47.5128 37.8799L36.2168 4.54729ZM82.6039 49.2365C82.6039 49.9415 82.4987 50.6225 82.3048 51.2656C81.845 52.7796 80.8901 54.0954 79.5933 55.0019C78.4146 55.8291 77.0093 56.2723 75.5693 56.271C72.3213 56.271 69.5814 54.0576 68.7756 51.0601C68.6157 50.4654 68.5346 49.8523 68.5347 49.2365C68.5347 48.2748 68.7289 47.3579 69.0796 46.5224C69.2607 46.0949 69.4835 45.6864 69.745 45.3028C71.011 43.4342 73.1472 42.2019 75.5693 42.2019C75.7914 42.2019 76.0104 42.2132 76.2276 42.2338C79.7991 42.5665 82.6042 45.5792 82.6042 49.2365H82.6039ZM87.1508 49.2365C87.1508 43.5823 83.0769 38.8646 77.7111 37.8569L90.5466 0H29.8753L42.7306 37.9334C37.5512 39.086 33.6661 43.7144 33.6661 49.2361C33.6661 53.3823 35.8572 57.024 39.141 59.0705C37.5615 61.4239 35.6886 63.6383 33.5421 65.6636C30.1378 68.8748 26.3456 71.3103 22.2572 72.9129C18.1389 70.326 16.3982 65.4475 18.2059 61.1978L18.3476 60.8647L18.6134 60.2397C23.1366 58.662 26.3917 54.357 26.3917 49.3031C26.3917 42.9169 21.1963 37.7215 14.8105 37.7215C8.42466 37.7215 3.22862 42.9169 3.22862 49.3031C3.22862 52.5263 4.55376 55.4451 6.68603 57.5469C6.28835 58.3895 5.88465 59.2293 5.47498 60.0661C3.52518 64.0702 1.31567 68.6087 0.479836 73.6488C-1.17978 83.6582 1.49743 91.6598 8.01862 96.1791C11.9756 98.9215 15.9943 100 20.0381 100C27.6523 100 35.3551 96.1745 42.889 92.4322C48.3146 89.7376 53.9252 86.9509 59.4671 85.584C61.5292 85.0755 63.6508 84.7694 65.8972 84.4455C70.352 83.8028 74.9581 83.1385 79.0384 80.7755C83.7682 78.036 87.0056 73.4405 87.9211 68.1683C88.707 63.6419 87.7613 59.1084 85.4547 55.2634C86.5661 53.4496 87.1532 51.3633 87.1508 49.2361V49.2365Z" fill="white"/>
</svg>
