<svg width="100" height="75" viewBox="0 0 100 75" fill="none" xmlns="http://www.w3.org/2000/svg">
<path d="M86.1078 43.1111C82.6191 43.1294 79.5871 43.9696 77.0482 45.2117C76.1167 43.3669 75.1851 41.723 75.0207 40.5174C74.8381 39.111 74.6189 38.2525 74.8381 36.5721C75.0573 34.8917 76.0436 32.4989 76.0253 32.3163C76.0071 32.1336 75.8061 31.2752 73.797 31.2569C71.7878 31.2386 70.0526 31.6405 69.8516 32.1702C69.6507 32.6999 69.2671 33.9054 69.0114 35.1474C68.6644 36.974 64.993 43.4947 62.8925 46.9103C62.2167 45.577 61.6322 44.408 61.5043 43.4764C61.3217 42.07 61.1025 41.2115 61.3217 39.5311C61.5409 37.8507 62.5272 35.4579 62.5089 35.2753C62.4907 35.0926 62.2898 34.2342 60.2806 34.2159C58.2714 34.1976 56.5362 34.5995 56.3352 35.1292C56.1343 35.6589 55.9151 36.9009 55.495 38.1064C55.0749 39.3119 50.1981 50.1981 48.9195 53.011C48.2619 54.4539 47.6957 55.6047 47.2939 56.3901C47.2939 56.3901 47.2756 56.4449 47.2208 56.5362C46.8738 57.212 46.6729 57.5773 46.6729 57.5773C46.6729 57.5773 46.6729 57.5773 46.6729 57.5956C46.3989 58.0887 46.1066 58.5454 45.9605 58.5454C45.8509 58.5454 45.65 57.2303 45.997 55.4403C46.7277 51.6593 48.4629 45.7779 48.4446 45.577C48.4446 45.4674 48.7734 44.4445 47.3121 43.9148C45.8874 43.3851 45.376 44.2619 45.2482 44.2619C45.1203 44.2619 45.029 44.5724 45.029 44.5724C45.029 44.5724 46.6181 37.9603 41.9969 37.9603C39.111 37.9603 35.1291 41.1202 33.1565 43.9696C31.9144 44.6454 29.2659 46.0884 26.4348 47.6409C25.3571 48.2437 24.243 48.8465 23.2018 49.4127C23.1288 49.3396 23.0557 49.2483 22.9826 49.1752C17.3934 43.2025 7.05523 38.9832 7.4936 30.9647C7.65799 28.0422 8.66258 20.3707 27.3481 11.0554C42.7275 3.47524 54.9653 5.57576 57.0841 10.2334C60.1162 16.882 50.5269 29.2294 34.636 31.0194C28.5719 31.6953 25.3937 29.3573 24.59 28.4806C23.7498 27.5673 23.6219 27.5125 23.3114 27.6951C22.8 27.9691 23.1288 28.7911 23.3114 29.266C23.7863 30.508 25.7407 32.6999 29.0468 33.7775C31.9692 34.7273 39.0745 35.257 47.6774 31.9327C57.3033 28.2066 64.8286 17.8501 62.6185 9.17404C60.4084 0.370125 45.7961 -2.53407 31.9692 2.37932C23.7498 5.30178 14.8363 9.90466 8.42513 15.8957C0.808465 23.0192 -0.397049 29.2112 0.096116 31.8049C1.86786 41.0106 14.5623 47.0017 19.6401 51.4401C19.3844 51.5863 19.1469 51.7141 18.946 51.8237C16.4071 53.084 6.72645 58.1435 4.31542 63.4953C1.57561 69.5594 4.75379 73.9066 6.85431 74.4911C13.3751 76.2993 20.0784 73.0481 23.6767 67.6781C27.275 62.3081 26.8366 55.3307 25.1745 52.1342C25.1562 52.0977 25.138 52.0612 25.1014 52.0246C25.759 51.6411 26.4348 51.2392 27.0924 50.8557C28.3892 50.0885 29.6678 49.3762 30.7637 48.7917C30.1427 50.4903 29.686 52.5178 29.4669 55.4403C29.1929 58.8742 30.5993 63.3309 32.4441 65.0844C33.2661 65.8515 34.2341 65.8698 34.8551 65.8698C37.0105 65.8698 37.9785 64.0798 39.0562 61.961C40.3713 59.3673 41.5585 56.3535 41.5585 56.3535C41.5585 56.3535 40.079 64.4999 44.0974 64.4999C45.5587 64.4999 47.0382 62.6003 47.6957 61.6322C47.6957 61.6505 47.6957 61.6505 47.6957 61.6505C47.6957 61.6505 47.7322 61.5957 47.8053 61.4678C47.9514 61.2304 48.0428 61.0843 48.0428 61.0843C48.0428 61.0843 48.0428 61.066 48.0428 61.0477C48.6273 60.0249 49.9424 57.7052 51.8968 53.8512C54.4174 48.883 56.8467 42.6728 56.8467 42.6728C56.8467 42.6728 57.0659 44.1888 57.8147 46.7094C58.2531 48.1889 59.1664 49.8145 59.897 51.3853C59.3125 52.2073 58.9472 52.6639 58.9472 52.6639C58.9472 52.6639 58.9472 52.6639 58.9655 52.6822C58.4906 53.3032 57.9791 53.979 57.4129 54.6366C55.422 57.0111 53.0475 59.7326 52.7187 60.518C52.3351 61.4496 52.4265 62.1254 53.1571 62.6734C53.6868 63.0752 54.6366 63.13 55.6046 63.0752C57.3946 62.9473 58.6549 62.509 59.276 62.235C60.244 61.888 61.3765 61.3583 62.4359 60.5728C64.3903 59.1299 65.5775 57.0659 65.4679 54.3443C65.4131 52.8466 64.92 51.3488 64.3172 49.9424C64.4999 49.6867 64.6643 49.431 64.8469 49.1752C67.9338 44.6637 70.3265 39.7138 70.3265 39.7138C70.3265 39.7138 70.5457 41.2298 71.2946 43.7504C71.6599 45.029 72.4088 46.4172 73.0663 47.7688C70.1621 50.125 68.3721 52.8648 67.7328 54.6549C66.5821 57.9792 67.4771 59.4769 69.1758 59.824C69.943 59.9883 71.0389 59.623 71.8426 59.276C72.8654 58.9472 74.0709 58.381 75.2216 57.5408C77.176 56.0978 79.0574 54.0886 78.9478 51.3671C78.893 50.125 78.5642 48.9013 78.1076 47.714C80.5734 46.6912 83.7516 46.1249 87.8065 46.5998C96.5008 47.6227 98.2178 53.0475 97.889 55.3307C97.5602 57.6138 95.7337 58.8559 95.1309 59.2395C94.5282 59.623 94.3273 59.7509 94.382 60.0249C94.4551 60.4267 94.7474 60.4084 95.2588 60.3354C95.9711 60.2075 99.8251 58.4906 99.9895 54.2896C100.264 48.9195 95.1492 43.0563 86.1078 43.1111ZM19.0373 65.7237C16.1514 68.8653 12.133 70.0526 10.3978 69.048C8.53473 67.9703 9.26534 63.3309 12.8088 60.0066C14.9641 57.9792 17.7405 56.0978 19.5853 54.9471C20.0054 54.6914 20.6264 54.3261 21.3753 53.8694C21.5032 53.7964 21.5762 53.7598 21.5762 53.7598C21.7223 53.6685 21.8685 53.5772 22.0146 53.4859C23.3114 58.2349 22.0694 62.4176 19.0373 65.7237ZM40.0425 51.4401C39.0379 53.8877 36.9374 60.1527 35.6588 59.8057C34.5629 59.5134 33.8871 54.7644 35.4396 50.0702C36.2251 47.714 37.8872 44.9011 38.8553 43.8052C40.4261 42.0517 42.1613 41.4672 42.5814 42.1796C43.1111 43.1111 40.6635 49.9059 40.0425 51.4401ZM57.3764 59.7326C56.9563 59.9518 56.5544 60.0979 56.3718 59.9883C56.2439 59.9153 56.5544 59.623 56.5544 59.623C56.5544 59.623 58.728 57.2851 59.5865 56.2257C60.0796 55.6047 60.6641 54.874 61.2852 54.0521C61.2852 54.1252 61.2852 54.2165 61.2852 54.2896C61.2852 57.0842 58.5819 58.9655 57.3764 59.7326ZM70.7466 56.6823C70.4361 56.4631 70.4909 55.7325 71.532 53.4493C71.9339 52.5543 72.8837 51.0566 74.5093 49.6136C74.692 50.1981 74.8198 50.7643 74.8016 51.294C74.7833 54.8192 72.2627 56.1344 70.7466 56.6823Z" fill="#CD6799"/>
</svg>
